<svg height="70" width="67.47" xmlns="http://www.w3.org/2000/svg"><path d="m-6.840527 566.44395c-1.7378-.4483-2.9361-1.14-4.264799-2.4614-.9171-.9121-1.300501-1.4183-1.739701-2.2972-1.151-2.3036-1.064699.1255-1.064699-29.9631 0-25.4419.012-26.7487.2526-27.7752.627699-2.6772 2.4742-5.0019 4.9041-6.1743 2.328299-1.1233.605299-1.053 25.8021-1.053h22.3912l7.0591 6.9662 7.059 6.9662-.04 24.1585c-.044 27.0726.058 24.525-1.076 26.8353-.4616.9404-.8019 1.3934-1.7545 2.3353-1.3518 1.3366-2.5554 2.0237-4.3265 2.4699-1.0657.2685-1.5582.2734-26.6294.266-24.799-.01-25.5736-.015-26.573-.2732zm52.101301-5.549c.8445-.252 1.5937-.8615 2.084-1.6956l.3774-.6419.036-22.3398.036-22.3398h-5.6294-5.6295v-5.6965-5.6965h-20.8985c-13.5959 0-21.0724.049-21.3959.1389-.7073.1965-1.7492 1.1667-2.1292 1.9827l-.322.6916v26.3718c0 28.7966-.052 26.9406.7673 28.015.4048.5308 1.1923 1.062 1.8586 1.2537.2887.083 9.7591.1374 25.3156.1452 21.5038.011 24.9455-.015 25.5312-.1896zm-25.9524-10.6341c-.151-.062-.4443-.2822-.6517-.4901-.9973-.9999-.7152-2.8358.6101-3.9702 1.0452-.8947 1.2496-.9163 8.228-.8719 5.9736.038 6.2459.051 6.7068.3188.6972.4052.9956 1.0571.8978 1.9615-.1014.9376-.458 1.6274-1.1775 2.2775-1.029.9296-.8091.9047-7.9175.8951-3.5318 0-6.545-.059-6.696-.1207zm-14.0921-.1497c-.5538-.094-1.1472-.438-1.5146-.8773-.5668-.6776-.4199-1.8774.3347-2.735.2461-.2796 5.0801-3.7413 10.7422-7.6927 5.6622-3.9514 10.2949-7.2458 10.2949-7.3207 0-.075-2.934-3.4169-6.5201-7.4264-4.3922-4.911-6.5814-7.4595-6.708-7.8091-.2559-.7067-.024-1.5264.6414-2.2641.8759-.9715 1.9307-1.2857 2.8507-.8491.588.279 15.0941 16.4674 15.5354 17.3371.412.8118.412 1.8187 0 2.598-.2755.5212-1.5299 1.4366-11.6332 8.4896-6.2283 4.348-11.5429 8.0199-11.81 8.1599-.6305.3304-1.5802.4977-2.2134.3898z" fill="#00bcf2" transform="translate(13.911 -496.719)"/></svg>