<svg height="48pt" viewBox="0 0 48 48" width="48pt" xmlns="http://www.w3.org/2000/svg" xmlns:xlink="http://www.w3.org/1999/xlink"><linearGradient id="a" gradientUnits="userSpaceOnUse" x1="2" x2="41.929472" y1="24" y2="42.483432"><stop offset="0" stop-color="#f7f107"/><stop offset=".83888397938" stop-color="#ffbb24"/></linearGradient><path d="m6 28c0 1.104-.896 2-2 2-1.104 0-2-.896-2-2v-21c0-2.76 2.24-5 5-5h34c2.76 0 5 2.24 5 5v5c0 1.104-.896 2-2 2-1.104 0-2-.896-2-2v-3c0-1.656-1.344-3-3-3h-30c-1.656 0-3 1.344-3 3zm36-8c0-1.104.896-2 2-2 1.104 0 2 .896 2 2v22c0 2.208-1.792 4-4 4h-36c-2.208 0-4-1.792-4-4v-6c0-1.104.896-2 2-2 1.104 0 2 .896 2 2v3c0 1.656 1.344 3 3 3h30c1.656 0 3-1.344 3-3zm-30-10c-1.108 0-2 .892-2 2v9c0 1.108.892 2 2 2s2-.892 2-2v-4.187l3 3v3.187h4v-1c0-.554.446-1 1-1h1v-4h-3.187l-3-3h4.187c1.108 0 2-.892 2-2s-.892-2-2-2zm15 0c-1.108 0-2 .892-2 2s.892 2 2 2h4.188l-3 3h-3.188v4h1c.554 0 1 .446 1 1v1h4v-3.187l3-3v4.187c0 1.108.892 2 2 2s2-.892 2-2v-9c0-1.108-.892-2-2-2zm-10 15v4c0 1.108.892 2 2 2h4v-4h-1c-.554 0-1-.446-1-1v-1zm10 0v1c0 .554-.446 1-1 1h-1v4h3.188l3 3h-4.188c-1.108 0-2 .892-2 2s.892 2 2 2h9c1.107 0 2-.892 2-2v-9c0-1.108-.893-2-2-2-1.109 0-2 .892-2 2v4.188l-3-3v-3.188z" fill="url(#a)" fill-rule="evenodd"/></svg>